<svg width="581" height="167" viewBox="0 0 581 167" fill="none" xmlns="http://www.w3.org/2000/svg">
<path d="M2.3 2.30005H579.5V164.8H2.3V2.30005Z" fill="white"/>
<g filter="url(#filter0_d_420_7064)">
<path d="M7.5 7.5H574.3V159.6H7.5V7.5Z" fill="white"/>
<path d="M71.2 36.1001H69.9V54.3001H71.2V36.1001Z" fill="black"/>
<path d="M53 34.8H51.7V50.4H53V34.8Z" fill="black"/>
<path d="M67.3 37.3999H66V46.4999H67.3V37.3999Z" fill="black"/>
<path d="M56.9 46.5V47.8H66V46.5H56.9Z" fill="black"/>
<path d="M60.8 50.4V51.7H67.3V50.4H60.8Z" fill="black"/>
<path d="M55.6 55.5999V56.8999H72.5V55.5999H55.6Z" fill="black"/>
<path d="M66 63.4V64.7H76.4V63.4H66Z" fill="black"/>
<path d="M60.8 58.2V59.5H71.2V58.2H60.8Z" fill="black"/>
<path d="M63.4 59.5V60.8H64.7V59.5H63.4Z" fill="black"/>
<path d="M53 66V67.3H54.3V66H53Z" fill="black"/>
<path d="M54.3 69.9V71.2H55.6V69.9H54.3Z" fill="black"/>
<path d="M56.9 71.2V72.5H58.2V71.2H56.9Z" fill="black"/>
<path d="M60.8 73.8001V75.1001H62.1V73.8001H60.8Z" fill="black"/>
<path d="M58.2 69.9V71.2H59.5V69.9H58.2Z" fill="black"/>
<path d="M59.5 68.5999V69.8999H60.8V68.5999H59.5Z" fill="black"/>
<path d="M60.8 69.9V71.2H62.1V69.9H60.8Z" fill="black"/>
<path d="M62.1 71.2V73.8H63.4V71.2H62.1Z" fill="black"/>
<path d="M76.4 60.7999V63.3999H77.7V60.7999H76.4Z" fill="black"/>
<path d="M55.6 68.5999V69.8999H56.9V68.5999H55.6Z" fill="black"/>
<path d="M56.9 67.3001V68.6001H59.5V67.3001H56.9Z" fill="black"/>
<path d="M66 59.5V60.8H67.3V59.5H66Z" fill="black"/>
<path d="M68.6 59.5V60.8H69.9V59.5H68.6Z" fill="black"/>
<path d="M71.2 59.5V60.8H72.5V59.5H71.2Z" fill="black"/>
<path d="M72.5 56.9V58.2H73.8V56.9H72.5Z" fill="black"/>
<path d="M73.8 58.2V59.5H75.1V58.2H73.8Z" fill="black"/>
<path d="M75.1 59.5V60.8H76.4V59.5H75.1Z" fill="black"/>
<path d="M72.5 60.8001V62.1001H73.8V60.8001H72.5Z" fill="black"/>
<path d="M69.9 60.8001V62.1001H71.2V60.8001H69.9Z" fill="black"/>
<path d="M67.3 60.8001V62.1001H68.6V60.8001H67.3Z" fill="black"/>
<path d="M43.9 50.4V51.7H45.2V50.4H43.9Z" fill="black"/>
<path d="M42.6 51.7V53H43.9V51.7H42.6Z" fill="black"/>
<path d="M41.3 50.4V51.7H42.6V50.4H41.3Z" fill="black"/>
<path d="M37.4 50.4V51.7H38.7V50.4H37.4Z" fill="black"/>
<path d="M38.7 51.7V53H41.3V51.7H38.7Z" fill="black"/>
<path d="M43.9 54.3001V55.6001H46.5V54.3001H43.9Z" fill="black"/>
<path d="M42.6 55.6V58.2H43.9V55.6H42.6Z" fill="black"/>
<path d="M50.4 59.5001V62.1001H51.7V59.5001H50.4Z" fill="black"/>
<path d="M49.1 62.1V64.7H50.4V62.1H49.1Z" fill="black"/>
<path d="M53 64.7H50.4V66H53V64.7Z" fill="black"/>
<path d="M36.1 45.1999V50.3999H37.4V45.1999H36.1Z" fill="black"/>
<path d="M37.4 43.9V45.2H40V43.9H37.4Z" fill="black"/>
<path d="M41.3 42.5999V43.8999H42.6V42.5999H41.3Z" fill="black"/>
<path d="M40 45.2V46.5H42.6V45.2H40Z" fill="black"/>
<path d="M42.6 43.9V45.2H45.2V43.9H42.6Z" fill="black"/>
<path d="M42.6 41.3001V42.6001H43.9V41.3001H42.6Z" fill="black"/>
<path d="M45.2 45.2V47.8H46.5V45.2H45.2Z" fill="black"/>
<path d="M46.5 54.3L46.5 53L54.3 53L54.3 54.3L46.5 54.3Z" fill="black"/>
<path d="M43.9 59.5L43.9 58.2L50.4 58.2L50.4 59.5L43.9 59.5Z" fill="black"/>
<path d="M58.2 36.0999V37.3999H66V36.0999H58.2Z" fill="black"/>
<path d="M53 33.5H68.6V34.8H53V33.5Z" fill="black"/>
<path d="M7.5 7.4999V4.8999H4.9V7.4999H7.5ZM574.3 7.4999H576.9V4.8999H574.3V7.4999ZM574.3 159.6V162.2H576.9V159.6H574.3ZM7.5 159.6H4.9V162.2H7.5V159.6ZM7.5 10.0999H574.3V4.8999H7.5V10.0999ZM571.7 7.4999V159.6H576.9V7.4999H571.7ZM574.3 157H7.5V162.2H574.3V157ZM10.1 159.6V7.4999H4.9V159.6H10.1Z" fill="black"/>
</g>
<path d="M2.3 2.3V1H1V2.3H2.3ZM579.5 2.3H580.8V1H579.5V2.3ZM579.5 164.8V166.1H580.8V164.8H579.5ZM2.3 164.8H1V166.1H2.3V164.8ZM2.3 3.6H579.5V1H2.3V3.6ZM578.2 2.3V164.8H580.8V2.3H578.2ZM579.5 163.5H2.3V166.1H579.5V163.5ZM3.6 164.8V2.3H1V164.8H3.6Z" fill="black"/>
<path d="M123.073 58V56.625V55.25V53.875V52.5V51.125V49.75V48.375V47V45.625H124.448H125.823V47V48.375V49.75V51.125V52.5V53.875V55.25V56.625H127.198H128.573V55.25V53.875V52.5V51.125V49.75V48.375V47V45.625H129.948H131.323V47V48.375V49.75V51.125V52.5V53.875V55.25V56.625H132.698H134.073V58H132.698H131.323H129.948H128.573H127.198H125.823H124.448H123.073ZM134.073 56.625V55.25V53.875V52.5V51.125V49.75V48.375V47V45.625H135.448H136.823V47V48.375V49.75V51.125V52.5V53.875V55.25H135.448V56.625H134.073ZM139.573 56.625V55.25V53.875V52.5V51.125V49.75H140.948V48.375H142.323H143.698H145.073H146.448V49.75H147.823V51.125V52.5V53.875H146.448H145.073H143.698H142.323V55.25V56.625H143.698H145.073H146.448V58H145.073H143.698H142.323H140.948V56.625H139.573ZM142.323 52.5H143.698H145.073V51.125V49.75H143.698H142.323V51.125V52.5ZM146.448 56.625V55.25H147.823V56.625H146.448ZM150.573 58V56.625V55.25V53.875V52.5V51.125V49.75V48.375V47V45.625H151.948H153.323V47V48.375V49.75V51.125V52.5V53.875V55.25V56.625V58H151.948H150.573ZM156.073 56.625V55.25V53.875V52.5V51.125V49.75H157.448V48.375H158.823H160.198H161.573V49.75H160.198H158.823V51.125V52.5V53.875V55.25V56.625H160.198H161.573V58H160.198H158.823H157.448V56.625H156.073ZM161.573 56.625V55.25H162.948V56.625H161.573ZM161.573 51.125V49.75H162.948V51.125H161.573ZM165.698 56.625V55.25V53.875V52.5V51.125V49.75H167.073V48.375H168.448H169.823H171.198H172.573V49.75H173.948V51.125V52.5V53.875V55.25V56.625H172.573V58H171.198H169.823H168.448H167.073V56.625H165.698ZM168.448 56.625H169.823H171.198V55.25V53.875V52.5V51.125V49.75H169.823H168.448V51.125V52.5V53.875V55.25V56.625ZM176.698 58V56.625V55.25V53.875V52.5V51.125V49.75V48.375H178.073H179.448H180.823H182.198H183.573V49.75H184.948V48.375H186.323H187.698H189.073V49.75H190.448V51.125V52.5V53.875V55.25V56.625V58H189.073H187.698V56.625V55.25V53.875V52.5V51.125V49.75H186.323H184.948V51.125V52.5V53.875V55.25V56.625V58H183.573H182.198V56.625V55.25V53.875V52.5V51.125V49.75H180.823H179.448V51.125V52.5V53.875V55.25V56.625V58H178.073H176.698ZM193.198 56.625V55.25V53.875V52.5V51.125V49.75H194.573V48.375H195.948H197.323H198.698H200.073V49.75H201.448V51.125V52.5V53.875H200.073H198.698H197.323H195.948V55.25V56.625H197.323H198.698H200.073V58H198.698H197.323H195.948H194.573V56.625H193.198ZM195.948 52.5H197.323H198.698V51.125V49.75H197.323H195.948V51.125V52.5ZM200.073 56.625V55.25H201.448V56.625H200.073ZM211.073 49.75V48.375H212.448V47V45.625H213.823H215.198V47V48.375H216.573V49.75H215.198V51.125V52.5V53.875V55.25V56.625H216.573V58H215.198H213.823V56.625H212.448V55.25V53.875V52.5V51.125V49.75H211.073ZM219.323 56.625V55.25V53.875V52.5V51.125V49.75H220.698V48.375H222.073H223.448H224.823H226.198V49.75H227.573V51.125V52.5V53.875V55.25V56.625H226.198V58H224.823H223.448H222.073H220.698V56.625H219.323ZM222.073 56.625H223.448H224.823V55.25V53.875V52.5V51.125V49.75H223.448H222.073V51.125V52.5V53.875V55.25V56.625ZM237.198 58V56.625V55.25V53.875V52.5V51.125V49.75V48.375V47V45.625H238.573H239.948H241.323H242.698H244.073V47H245.448V48.375V49.75V51.125H244.073V52.5H245.448V53.875V55.25V56.625H244.073V58H242.698H241.323H239.948H238.573H237.198ZM239.948 56.625H241.323H242.698V55.25V53.875V52.5H241.323H239.948V53.875V55.25V56.625ZM239.948 51.125H241.323H242.698V49.75V48.375V47H241.323H239.948V48.375V49.75V51.125ZM248.198 56.625V55.25V53.875V52.5V51.125V49.75H249.573V48.375H250.948H252.323H253.698H255.073V49.75H256.448V51.125V52.5V53.875H255.073H253.698H252.323H250.948V55.25V56.625H252.323H253.698H255.073V58H253.698H252.323H250.948H249.573V56.625H248.198ZM250.948 52.5H252.323H253.698V51.125V49.75H252.323H250.948V51.125V52.5ZM255.073 56.625V55.25H256.448V56.625H255.073ZM259.198 49.75V48.375H260.573V47V45.625H261.948H263.323V47V48.375H264.698V49.75H263.323V51.125V52.5V53.875V55.25V56.625H264.698V58H263.323H261.948V56.625H260.573V55.25V53.875V52.5V51.125V49.75H259.198ZM267.448 58V56.625V55.25V53.875V52.5V51.125V49.75V48.375H268.823H270.198V49.75V51.125V52.5V53.875V55.25V56.625H271.573H272.948V55.25V53.875V52.5V51.125V49.75V48.375H274.323H275.698V49.75V51.125V52.5V53.875V55.25V56.625H277.073H278.448V58H277.073H275.698H274.323H272.948H271.573H270.198H268.823H267.448ZM278.448 56.625V55.25V53.875V52.5V51.125V49.75V48.375H279.823H281.198V49.75V51.125V52.5V53.875V55.25H279.823V56.625H278.448ZM283.948 56.625V55.25V53.875V52.5V51.125V49.75H285.323V48.375H286.698H288.073H289.448H290.823V49.75H292.198V51.125V52.5V53.875H290.823H289.448H288.073H286.698V55.25V56.625H288.073H289.448H290.823V58H289.448H288.073H286.698H285.323V56.625H283.948ZM286.698 52.5H288.073H289.448V51.125V49.75H288.073H286.698V51.125V52.5ZM290.823 56.625V55.25H292.198V56.625H290.823ZM294.948 56.625V55.25V53.875V52.5V51.125V49.75H296.323V48.375H297.698H299.073H300.448H301.823V49.75H303.198V51.125V52.5V53.875H301.823H300.448H299.073H297.698V55.25V56.625H299.073H300.448H301.823V58H300.448H299.073H297.698H296.323V56.625H294.948ZM297.698 52.5H299.073H300.448V51.125V49.75H299.073H297.698V51.125V52.5ZM301.823 56.625V55.25H303.198V56.625H301.823ZM305.948 58V56.625V55.25V53.875V52.5V51.125V49.75V48.375H307.323H308.698H310.073H311.448H312.823V49.75H314.198V51.125V52.5V53.875V55.25V56.625V58H312.823H311.448V56.625V55.25V53.875V52.5V51.125V49.75H310.073H308.698V51.125V52.5V53.875V55.25V56.625V58H307.323H305.948ZM316.948 58V56.625V55.25V53.875V52.5V51.125V49.75V48.375H318.323H319.698V49.75V51.125V52.5V53.875V55.25V56.625H321.073H322.448V55.25V53.875V52.5V51.125V49.75V48.375H323.823H325.198V49.75V51.125V52.5V53.875V55.25V56.625H326.573H327.948V58H326.573H325.198H323.823H322.448H321.073H319.698H318.323H316.948ZM327.948 56.625V55.25V53.875V52.5V51.125V49.75V48.375H329.323H330.698V49.75V51.125V52.5V53.875V55.25H329.323V56.625H327.948ZM333.448 56.625V55.25V53.875V52.5V51.125V49.75H334.823V48.375H336.198H337.573H338.948H340.323V49.75H341.698V51.125V52.5V53.875V55.25V56.625H340.323V58H338.948H337.573H336.198H334.823V56.625H333.448ZM336.198 56.625H337.573H338.948V55.25V53.875V52.5V51.125V49.75H337.573H336.198V51.125V52.5V53.875V55.25V56.625ZM344.448 58V56.625V55.25V53.875V52.5V51.125V49.75V48.375H345.823H347.198H348.573H349.948H351.323V49.75H352.698V51.125V52.5V53.875V55.25V56.625V58H351.323H349.948V56.625V55.25V53.875V52.5V51.125V49.75H348.573H347.198V51.125V52.5V53.875V55.25V56.625V58H345.823H344.448ZM355.448 56.625V55.25V53.875V52.5V51.125V49.75H356.823V48.375H358.198H359.573H360.948V47V45.625H362.323H363.698V47V48.375V49.75V51.125V52.5V53.875V55.25V56.625V58H362.323H360.948H359.573H358.198H356.823V56.625H355.448ZM358.198 56.625H359.573H360.948V55.25V53.875V52.5V51.125V49.75H359.573H358.198V51.125V52.5V53.875V55.25V56.625ZM366.448 56.625V55.25V53.875V52.5V51.125V49.75H367.823V48.375H369.198H370.573H371.948H373.323V49.75H374.698V51.125V52.5V53.875H373.323H371.948H370.573H369.198V55.25V56.625H370.573H371.948H373.323V58H371.948H370.573H369.198H367.823V56.625H366.448ZM369.198 52.5H370.573H371.948V51.125V49.75H370.573H369.198V51.125V52.5ZM373.323 56.625V55.25H374.698V56.625H373.323ZM377.448 58V56.625V55.25V53.875V52.5V51.125V49.75V48.375H378.823H380.198V49.75H381.573V48.375H382.948H384.323V49.75V51.125H382.948H381.573H380.198V52.5V53.875V55.25V56.625V58H378.823H377.448ZM387.073 56.625V55.25H388.448V56.625H387.073ZM387.073 52.5V51.125V49.75H388.448V48.375H389.823H391.198H392.573V49.75H391.198H389.823V51.125H391.198V52.5H392.573V53.875H393.948V55.25V56.625H392.573V58H391.198H389.823H388.448V56.625H389.823H391.198V55.25H389.823V53.875H388.448V52.5H387.073ZM392.573 51.125V49.75H393.948V51.125H392.573ZM401.693 41.9619L401.844 42.1982C401.743 42.5921 401.622 43.0075 401.479 43.4443C401.342 43.874 401.188 44.3145 401.017 44.7656C400.852 45.2096 400.676 45.6501 400.49 46.0869C400.311 46.5238 400.132 46.9427 399.953 47.3438H398.481C398.582 46.9141 398.682 46.4629 398.782 45.9902C398.89 45.5176 398.99 45.0449 399.083 44.5723C399.183 44.0996 399.273 43.6413 399.352 43.1973C399.43 42.7533 399.498 42.3415 399.556 41.9619H401.693ZM410.427 58V56.625V55.25V53.875V52.5V51.125V49.75V48.375H411.802H413.177H414.552H415.927H417.302V49.75H418.677V51.125V52.5V53.875V55.25V56.625H417.302V58H415.927H414.552H413.177V59.375V60.75H411.802H410.427V59.375V58ZM413.177 56.625H414.552H415.927V55.25V53.875V52.5V51.125V49.75H414.552H413.177V51.125V52.5V53.875V55.25V56.625ZM421.427 56.625V55.25V53.875V52.5V51.125V49.75H422.802V48.375H424.177H425.552H426.927H428.302V49.75H429.677V51.125V52.5V53.875V55.25V56.625H428.302V58H426.927H425.552H424.177H422.802V56.625H421.427ZM424.177 56.625H425.552H426.927V55.25V53.875V52.5V51.125V49.75H425.552H424.177V51.125V52.5V53.875V55.25V56.625ZM432.427 58V56.625V55.25V53.875V52.5V51.125V49.75V48.375H433.802H435.177V49.75H436.552V48.375H437.927H439.302V49.75V51.125H437.927H436.552H435.177V52.5V53.875V55.25V56.625V58H433.802H432.427ZM442.052 49.75V48.375H443.427V47V45.625H444.802H446.177V47V48.375H447.552V49.75H446.177V51.125V52.5V53.875V55.25V56.625H447.552V58H446.177H444.802V56.625H443.427V55.25V53.875V52.5V51.125V49.75H442.052ZM450.302 49.75V48.375H451.677V47H453.052V45.625H454.427H455.802H457.177V47H455.802H454.427V48.375H455.802V49.75H454.427V51.125V52.5V53.875V55.25V56.625V58H453.052H451.677V56.625V55.25V53.875V52.5V51.125V49.75H450.302ZM459.927 56.625V55.25V53.875V52.5V51.125V49.75H461.302V48.375H462.677H464.052H465.427H466.802V49.75H468.177V51.125V52.5V53.875V55.25V56.625H466.802V58H465.427H464.052H462.677H461.302V56.625H459.927ZM462.677 56.625H464.052H465.427V55.25V53.875V52.5V51.125V49.75H464.052H462.677V51.125V52.5V53.875V55.25V56.625ZM470.927 58V56.625V55.25V53.875V52.5V51.125V49.75V48.375V47V45.625H472.302H473.677V47V48.375V49.75V51.125V52.5V53.875V55.25V56.625V58H472.302H470.927ZM476.427 58V56.625V55.25V53.875V52.5V51.125V49.75V48.375H477.802H479.177V49.75V51.125V52.5V53.875V55.25V56.625V58H477.802H476.427ZM476.427 47V45.625H477.802H479.177V47H477.802H476.427ZM481.927 56.625V55.25V53.875V52.5V51.125V49.75H483.302V48.375H484.677H486.052H487.427H488.802V49.75H490.177V51.125V52.5V53.875V55.25V56.625H488.802V58H487.427H486.052H484.677H483.302V56.625H481.927ZM484.677 56.625H486.052H487.427V55.25V53.875V52.5V51.125V49.75H486.052H484.677V51.125V52.5V53.875V55.25V56.625Z" fill="black"/>
<defs>
<filter id="filter0_d_420_7064" x="0.900002" y="0.899902" width="580" height="165.3" filterUnits="userSpaceOnUse" color-interpolation-filters="sRGB">
<feFlood flood-opacity="0" result="BackgroundImageFix"/>
<feColorMatrix in="SourceAlpha" type="matrix" values="0 0 0 0 0 0 0 0 0 0 0 0 0 0 0 0 0 0 127 0" result="hardAlpha"/>
<feOffset/>
<feGaussianBlur stdDeviation="2"/>
<feColorMatrix type="matrix" values="0 0 0 0 1 0 0 0 0 1 0 0 0 0 1 0 0 0 1 0"/>
<feBlend mode="normal" in2="BackgroundImageFix" result="effect1_dropShadow_420_7064"/>
<feBlend mode="normal" in="SourceGraphic" in2="effect1_dropShadow_420_7064" result="shape"/>
</filter>
</defs>
</svg>
